<svg xmlns="http://www.w3.org/2000/svg" xmlns:xlink="http://www.w3.org/1999/xlink" version="1.1"  viewBox="0 0 256 256" xml:space="preserve">

<defs>
</defs>
<g style="stroke: none; stroke-width: 0; stroke-dasharray: none; stroke-linecap: butt; stroke-linejoin: miter; stroke-miterlimit: 10; fill: none; fill-rule: nonzero; opacity: 1;" transform="translate(1.4065934065934016 1.4065934065934016) scale(2.81 2.81)" >
	<path d="M 45 0 C 28.967 0 14.902 8.392 6.932 21.015 c 2.729 1.97 6.069 3.145 9.693 3.145 h 32.399 c 17.08 0 32.123 8.704 40.948 21.915 C 89.981 45.716 90 45.36 90 45 C 90 20.147 69.853 0 45 0 z" style="stroke: none; stroke-width: 1; stroke-dasharray: none; stroke-linecap: butt; stroke-linejoin: miter; stroke-miterlimit: 10; fill: rgb(40,40,40); fill-rule: nonzero; opacity: 1;" transform=" matrix(1 0 0 1 0 0) " stroke-linecap="round" />
	<path d="M 89.969 45 c 0 -1.207 -0.062 -2.399 -0.155 -3.583 c -8.843 -13.682 -23.826 -20.532 -40.821 -20.532 H 16.594 c -3.159 0 -6.101 -0.494 -8.614 -1.504 c -4.625 6.664 -7.501 14.633 -7.949 23.247 c 9.023 11.127 22.794 18.247 38.236 18.247 h 0.744 c 9.038 0 13.101 3.942 13.329 12.925 c 0.004 -0.143 0.022 -0.282 0.022 -0.426 c 0 8.417 -3.516 15.355 -11.172 16.456 c 1.247 0.104 2.505 0.17 3.778 0.17 C 69.821 90 89.969 69.853 89.969 45 z" style="stroke: none; stroke-width: 1; stroke-dasharray: none; stroke-linecap: butt; stroke-linejoin: miter; stroke-miterlimit: 10; fill: rgb(28,28,28); fill-rule: nonzero; opacity: 1;" transform=" matrix(1 0 0 1 0 0) " stroke-linecap="round" />
	<path d="M 41.27 89.834 c 7.988 -1.072 14.169 -7.802 14.378 -16.034 c -0.228 -8.983 -7.566 -16.2 -16.604 -16.2 h -0.744 c -15.296 0 -28.947 -6.992 -37.973 -17.938 C 0.119 41.414 0 43.193 0 45 C 0 68.595 18.164 87.936 41.27 89.834 z" style="stroke: none; stroke-width: 1; stroke-dasharray: none; stroke-linecap: butt; stroke-linejoin: miter; stroke-miterlimit: 10; fill: rgb(0,0,0); fill-rule: nonzero; opacity: 1;" transform=" matrix(1 0 0 1 0 0) " stroke-linecap="round" />
	<path d="M 25.929 33.25 c 0.062 -0.614 -0.172 -1.221 -0.63 -1.634 l -4.669 -5.624 v -0.84 h 14.496 L 46.33 49.726 l 9.851 -24.573 H 70 v 0.84 l -3.992 3.827 c -0.344 0.262 -0.515 0.693 -0.444 1.12 v 28.12 c -0.071 0.427 0.099 0.858 0.444 1.12 l 3.898 3.827 v 0.84 H 50.299 v -0.84 l 4.038 -3.921 c 0.397 -0.397 0.397 -0.513 0.397 -1.12 V 36.237 L 43.506 64.754 h -1.518 L 28.917 36.237 V 55.35 c -0.109 0.804 0.158 1.613 0.724 2.194 l 5.252 6.371 v 0.84 H 20 v -0.84 l 5.252 -6.371 c 0.562 -0.582 0.813 -1.396 0.677 -2.194 V 33.25 z" style="stroke: none; stroke-width: 1; stroke-dasharray: none; stroke-linecap: butt; stroke-linejoin: miter; stroke-miterlimit: 10; fill: rgb(255,255,255); fill-rule: nonzero; opacity: 1;" transform=" matrix(1 0 0 1 0 0) " stroke-linecap="round" />
</g>
</svg>